# xmcd CD database file
#
# Track frame offsets:
#	150
#	22690
#	38344
#	60554
#	76240
#	95992
#
# Disc length: 1515 seconds
#
# Revision: 0
# Processed by: cddbd v1.5.1PL0 Copyright (c) Steve Scherf et al.
# Submitted via: CDex 1.50
#
DISCID=3805e906
DTITLE=Eric Lindell - Piety Street Session
DYEAR=2003
DGENRE=Blues
TTITLE0=Let Me Know
TTITLE1=Should Have Known
TTITLE2=It's A Drag
TTITLE3=See Me Through
TTITLE4=Lickin' Stick
TTITLE5=Sad and Blue
EXTD=YEAR: 2003
EXTT0=
EXTT1=
EXTT2=
EXTT3=
EXTT4=
EXTT5=
PLAYORDER=
